<svg width="32" height="40" viewBox="0 0 32 40" fill="none" xmlns="http://www.w3.org/2000/svg">
<g clip-path="url(#clip0_2425_1056)">
<path d="M20.4604 37.85L13.5038 29.35L15.7954 26.55L20.4604 32.25L29.7084 20.95L32 23.75L20.4604 37.85ZM29.4629 18H26.1893V8H22.9156V14H6.54731V8H3.27366V36H13.0946V40H3.27366C2.3734 40 1.603 39.6087 0.962455 38.826C0.32191 38.0433 0.00109122 37.1013 0 36V8C0 6.9 0.320819 5.95867 0.962455 5.176C1.60409 4.39333 2.37449 4.00133 3.27366 4H10.1074C10.4075 2.83333 10.994 1.87533 11.867 1.126C12.74 0.376667 13.6948 0.00133333 14.7315 0C15.8227 0 16.7982 0.375333 17.6581 1.126C18.518 1.87667 19.0974 2.83467 19.3964 4H26.1893C27.0895 4 27.8605 4.392 28.5021 5.176C29.1437 5.96 29.464 6.90133 29.4629 8V18ZM14.7315 8C15.1952 8 15.5842 7.808 15.8985 7.424C16.2128 7.04 16.3694 6.56533 16.3683 6C16.3672 5.43467 16.2101 4.96 15.8969 4.576C15.5837 4.192 15.1952 4 14.7315 4C14.2677 4 13.8792 4.192 13.566 4.576C13.2529 4.96 13.0957 5.43467 13.0946 6C13.0935 6.56533 13.2507 7.04067 13.566 7.426C13.8814 7.81133 14.2699 8.00267 14.7315 8Z" fill="url(#paint0_linear_2425_1056)"/>
</g>
<defs>
<linearGradient id="paint0_linear_2425_1056" x1="-6.54732" y1="-12" x2="42.482" y2="43.1877" gradientUnits="userSpaceOnUse">
<stop stop-color="#FF0D92"/>
<stop offset="1" stop-color="#A700AF"/>
</linearGradient>
<clipPath id="clip0_2425_1056">
<rect width="32" height="40" fill="white"/>
</clipPath>
</defs>
</svg>
